<?xml version="1.0" encoding="UTF-8"?>
<!DOCTYPE svg PUBLIC "-//W3C//DTD SVG 1.1//EN" "http://www.w3.org/Graphics/SVG/1.1/DTD/svg11.dtd">
<svg xmlns="http://www.w3.org/2000/svg" version="1.1" width="399px" height="122px" style="shape-rendering:geometricPrecision; text-rendering:geometricPrecision; image-rendering:optimizeQuality; fill-rule:evenodd; clip-rule:evenodd" xmlns:xlink="http://www.w3.org/1999/xlink">
<g><path style="opacity:0.967" fill="#e5e674" d="M 49.5,-0.5 C 56.8333,-0.5 64.1667,-0.5 71.5,-0.5C 76.9494,0.876227 82.2827,2.87623 87.5,5.5C 53.1431,20.5442 39.6431,46.5442 47,83.5C 32.9111,73.789 17.4111,70.4557 0.5,73.5C 0.784479,71.5853 0.451145,69.9187 -0.5,68.5C -0.5,62.8333 -0.5,57.1667 -0.5,51.5C 5.64071,24.0263 22.3074,6.69295 49.5,-0.5 Z"/></g>
<g><path style="opacity:0.966" fill="#e5e674" d="M 92.5,9.5 C 94.3084,9.49136 95.9751,9.99136 97.5,11C 116.919,27.4156 124.585,48.2489 120.5,73.5C 103.589,70.4557 88.0889,73.789 74,83.5C 79.1076,63.3124 75.9409,44.4791 64.5,27C 67.4976,22.9894 71.1643,19.6561 75.5,17C 81.0319,13.8942 86.6986,11.3942 92.5,9.5 Z"/></g>
<g><path style="opacity:0.941" fill="#00a5ba" d="M 156.5,16.5 C 172.153,15.3062 181.486,22.3062 184.5,37.5C 182.146,50.8496 174.146,57.8496 160.5,58.5C 144.157,57.3316 136.657,48.6649 138,32.5C 141.11,23.5422 147.277,18.2088 156.5,16.5 Z M 160.5,32.5 C 165.587,34.0403 166.587,36.8737 163.5,41C 157.117,42.6193 154.95,40.4526 157,34.5C 158.302,33.9152 159.469,33.2485 160.5,32.5 Z"/></g>
<g><path style="opacity:0.946" fill="#00a5ba" d="M 272.5,16.5 C 278.176,16.3339 283.843,16.5006 289.5,17C 291.101,17.2734 292.601,17.7734 294,18.5C 294.667,23.5 294.667,28.5 294,33.5C 293.107,34.0814 292.107,34.4148 291,34.5C 285.173,32.4242 279.34,32.2576 273.5,34C 271.004,39.6124 272.671,41.9457 278.5,41C 279.38,39.6439 279.714,38.1439 279.5,36.5C 284.975,35.9193 290.142,36.5859 295,38.5C 297.033,52.1389 291.033,58.4723 277,57.5C 255.996,56.1466 248.996,45.48 256,25.5C 260.516,20.4953 266.016,17.4953 272.5,16.5 Z"/></g>
<g><path style="opacity:0.943" fill="#00a5ba" d="M 316.5,16.5 C 330.361,14.9964 339.528,20.6631 344,33.5C 345.14,45.0592 340.306,52.8925 329.5,57C 314.504,60.7516 304.004,55.5849 298,41.5C 297.392,28.0179 303.559,19.6845 316.5,16.5 Z M 320.5,32.5 C 323.288,33.2265 325.288,34.8932 326.5,37.5C 324.078,41.8177 320.911,42.4843 317,39.5C 316.176,36.1604 317.343,33.827 320.5,32.5 Z"/></g>
<g><path style="opacity:0.938" fill="#00a5ba" d="M 187.5,17.5 C 196.839,17.3335 206.173,17.5002 215.5,18C 226.003,19.4943 229.503,25.3276 226,35.5C 223.592,37.9561 220.759,39.7894 217.5,41C 219.519,41.4497 221.352,42.283 223,43.5C 225.487,47.6441 227.154,51.9774 228,56.5C 222.25,57.6406 216.416,57.8072 210.5,57C 208.818,54.3099 207.318,51.4766 206,48.5C 205.782,51.4262 205.282,54.2595 204.5,57C 198.833,57.6667 193.167,57.6667 187.5,57C 186.175,43.8334 186.175,30.6667 187.5,17.5 Z M 206.5,29.5 C 208.912,29.6941 209.912,31.0274 209.5,33.5C 208.167,33.5 206.833,33.5 205.5,33.5C 205.433,32.0413 205.766,30.7079 206.5,29.5 Z"/></g>
<g><path style="opacity:0.927" fill="#00a5ba" d="M 232.5,17.5 C 238.631,16.9078 244.464,17.5745 250,19.5C 250.821,32.0756 250.655,44.5756 249.5,57C 243.584,57.8072 237.75,57.6406 232,56.5C 231.187,43.4247 231.354,30.4247 232.5,17.5 Z"/></g>
<g><path style="opacity:0.94" fill="#00a5ba" d="M 139.5,63.5 C 144.511,63.3341 149.511,63.5007 154.5,64C 157.123,67.412 159.623,70.912 162,74.5C 164.868,71.2641 167.368,67.7641 169.5,64C 174.833,63.3333 180.167,63.3333 185.5,64C 186.157,70.4226 186.491,76.9226 186.5,83.5C 186.491,90.0774 186.157,96.5774 185.5,103C 180.5,103.667 175.5,103.667 170.5,103C 169.726,100.595 169.226,98.095 169,95.5C 168.626,96.4162 168.126,97.2496 167.5,98C 164.167,98.6667 160.833,98.6667 157.5,98C 156.033,96.9025 155.199,95.4025 155,93.5C 154.788,96.7577 154.288,99.9243 153.5,103C 148.511,103.499 143.511,103.666 138.5,103.5C 138.186,90.0875 138.519,76.7541 139.5,63.5 Z"/></g>
<g><path style="opacity:0.94" fill="#00a5ba" d="M 199.5,63.5 C 207.752,63.1842 215.919,63.5175 224,64.5C 227.097,77.0542 230.263,89.5542 233.5,102C 228.355,103.446 223.021,103.946 217.5,103.5C 217.509,99.6567 215.509,97.99 211.5,98.5C 207.515,97.6039 205.182,99.1039 204.5,103C 199.581,103.802 194.748,103.635 190,102.5C 192.375,89.3312 195.542,76.3312 199.5,63.5 Z M 210.5,79.5 C 212.397,81.6975 213.397,84.3642 213.5,87.5C 212.167,87.5 210.833,87.5 209.5,87.5C 209.833,84.8333 210.167,82.1667 210.5,79.5 Z"/></g>
<g><path style="opacity:0.953" fill="#00a5ba" d="M 237.5,63.5 C 247.172,63.3335 256.839,63.5002 266.5,64C 275.428,66.0091 278.595,71.5091 276,80.5C 273.635,83.8691 270.468,86.0357 266.5,87C 268.888,87.3034 271.055,88.1367 273,89.5C 275.384,93.9227 276.884,98.5894 277.5,103.5C 271.463,103.829 265.463,103.496 259.5,102.5C 257.726,99.2852 256.226,95.9518 255,92.5C 254.501,96.1516 254.335,99.8183 254.5,103.5C 248.575,103.808 242.741,103.475 237,102.5C 236.187,89.4247 236.354,76.4247 237.5,63.5 Z M 255.5,75.5 C 258.166,75.0658 259.333,76.0658 259,78.5C 255.403,80.0661 254.237,79.0661 255.5,75.5 Z"/></g>
<g><path style="opacity:0.932" fill="#00a5ba" d="M 281.5,63.5 C 287.5,63.5 293.5,63.5 299.5,63.5C 299.334,67.5138 299.501,71.5138 300,75.5C 301.113,71.4919 302.613,67.6586 304.5,64C 310.416,63.1928 316.25,63.3594 322,64.5C 322.965,68.7824 322.298,72.7824 320,76.5C 316.703,79.5667 312.869,81.7334 308.5,83C 311.249,84.1227 313.749,85.6227 316,87.5C 318.942,92.4946 320.776,97.828 321.5,103.5C 315.833,103.5 310.167,103.5 304.5,103.5C 303.298,99.422 301.798,95.422 300,91.5C 299.501,95.4862 299.334,99.4862 299.5,103.5C 293.242,103.81 287.076,103.476 281,102.5C 280.187,89.4247 280.354,76.4247 281.5,63.5 Z"/></g>
<g><path style="opacity:0.93" fill="#00a5ba" d="M 327.5,63.5 C 337.839,63.3335 348.172,63.5002 358.5,64C 359.833,68 359.833,72 358.5,76C 353.525,75.6716 348.525,75.6716 343.5,76C 342.221,78.7528 343.221,80.2528 346.5,80.5C 349.783,79.673 353.116,79.3396 356.5,79.5C 356.5,82.5 356.5,85.5 356.5,88.5C 351.758,87.9811 347.091,87.9811 342.5,88.5C 342.5,89.5 342.5,90.5 342.5,91.5C 344.262,91.3573 345.929,91.6906 347.5,92.5C 351.175,91.5829 354.842,91.0829 358.5,91C 359.833,95 359.833,99 358.5,103C 347.839,103.5 337.172,103.667 326.5,103.5C 326.186,90.0875 326.519,76.7541 327.5,63.5 Z"/></g>
<g><path style="opacity:0.935" fill="#00a5ba" d="M 398.5,64.5 C 398.5,68.1667 398.5,71.8333 398.5,75.5C 395.609,76.4025 392.609,76.7359 389.5,76.5C 389.666,85.1731 389.5,93.8397 389,102.5C 383.259,103.475 377.425,103.808 371.5,103.5C 371.666,94.8269 371.5,86.1603 371,77.5C 368.281,76.5562 365.448,76.2229 362.5,76.5C 362.5,72.1667 362.5,67.8333 362.5,63.5C 374.58,63.1881 386.58,63.5214 398.5,64.5 Z"/></g>
<g><path style="opacity:0.943" fill="#00a5ba" d="M 7.5,77.5 C 28.2724,76.557 44.939,84.2236 57.5,100.5C 53.7272,106.818 50.7272,113.485 48.5,120.5C 25.135,115.129 9.80163,101.129 2.5,78.5C 4.41467,78.7845 6.08134,78.4511 7.5,77.5 Z"/></g>
<g><path style="opacity:0.944" fill="#00a5ba" d="M 65.5,121.5 C 62.1667,121.5 58.8333,121.5 55.5,121.5C 57.17,107.596 63.8366,96.4296 75.5,88C 88.5415,79.0643 102.875,75.8976 118.5,78.5C 113.006,96.8327 101.339,109.666 83.5,117C 77.5211,119.161 71.5211,120.661 65.5,121.5 Z"/></g>
</svg>
